<svg width="144" height="31" viewBox="0 0 144 31" fill="none" xmlns="http://www.w3.org/2000/svg">
<circle cx="72.5" cy="15.5" r="15.5" fill="white"/>
<path d="M79.94 11.7342V12.2346C79.94 17.1641 76.29 22.8349 69.58 22.8349C67.54 22.8349 65.61 22.2418 64 21.1392C64.27 21.1855 64.59 21.1855 64.86 21.1855C66.58 21.1855 68.14 20.5925 69.37 19.5918C67.76 19.5454 66.42 18.4984 65.93 17.0066C66.14 17.0529 66.36 17.0529 66.63 17.0529C66.95 17.0529 67.27 17.0066 67.6 16.9046C65.94 16.6081 64.7 15.1163 64.7 13.2724V13.226C65.18 13.5225 65.77 13.6708 66.36 13.6708C65.39 13.0222 64.75 11.8825 64.75 10.5852C64.75 9.89026 64.91 9.24164 65.23 8.69495C67.06 10.9373 69.74 12.4291 72.75 12.5774C72.7 12.3272 72.64 12.0307 72.64 11.7342C72.64 9.69568 74.25 8 76.29 8C77.36 8 78.28 8.44477 78.97 9.19531C79.78 9.04706 80.58 8.69495 81.28 8.29651C81.01 9.19531 80.42 9.89026 79.67 10.335C80.42 10.2331 81.12 10.0385 81.76 9.74201C81.22 10.5389 80.63 11.1875 79.93 11.7342H79.94Z" fill="#4C9540"/>
<ellipse cx="128.443" cy="15.5" rx="15.4469" ry="15.5" fill="white"/>
<path d="M122.564 9H135.32C136.187 9 136.904 9.7 136.914 10.55L128.942 14.94L120.969 10.56C120.979 9.7 121.697 9 122.564 9ZM120.969 12.24V20C120.969 20.86 121.677 21.57 122.554 21.57H135.31C136.187 21.57 136.904 20.86 136.904 20V12.23L129.121 16.41C129.002 16.47 128.862 16.47 128.742 16.41C128.752 16.42 120.969 12.24 120.969 12.24Z" fill="#4C9540"/>
<circle cx="15.5" cy="15.5" r="15.5" fill="white"/>
<path d="M12.0828 17.0183L12.0508 16.9887L17.6188 12.6744L10.2028 15.4468L7.21077 12.9413C6.94677 12.7189 6.93077 12.3483 7.16277 12.1036C7.24277 12.0221 7.35477 11.9554 7.47477 11.9257L23.3228 8.01919C23.6668 7.93765 24.0108 8.12297 24.0988 8.44172C24.1308 8.5455 24.1308 8.64928 24.0988 8.75306L19.8748 22.4C19.7788 22.7114 19.4268 22.8967 19.0828 22.8077C18.9868 22.7855 18.8988 22.741 18.8268 22.6743L14.7308 19.2422L12.0748 21.7032V17.0183H12.0828Z" fill="#4C9540"/>
</svg>
